<svg id="Group_3962" data-name="Group 3962" xmlns="http://www.w3.org/2000/svg" width="72.416" height="44.781" viewBox="0 0 72.416 44.781">
  <path id="Icon_awesome-user-alt" data-name="Icon awesome-user-alt" d="M16.26,18.293A9.146,9.146,0,1,0,7.114,9.146,9.149,9.149,0,0,0,16.26,18.293Zm8.13,2.033h-3.5a11.057,11.057,0,0,1-9.261,0H8.13A8.13,8.13,0,0,0,0,28.455v1.016a3.05,3.05,0,0,0,3.049,3.049H29.472a3.05,3.05,0,0,0,3.049-3.049V28.455A8.13,8.13,0,0,0,24.39,20.325Z" transform="translate(39.895 12.26)" fill="#ff8585"/>
  <path id="Icon_awesome-user-alt-2" data-name="Icon awesome-user-alt" d="M16.26,18.293A9.146,9.146,0,1,0,7.114,9.146,9.149,9.149,0,0,0,16.26,18.293Zm8.13,2.033h-3.5a11.057,11.057,0,0,1-9.261,0H8.13A8.13,8.13,0,0,0,0,28.455v1.016a3.05,3.05,0,0,0,3.049,3.049H29.472a3.05,3.05,0,0,0,3.049-3.049V28.455A8.13,8.13,0,0,0,24.39,20.325Z" transform="translate(0 12.26)" fill="#ff8585"/>
  <path id="Icon_awesome-user-alt-3" data-name="Icon awesome-user-alt" d="M22.39,25.189A12.595,12.595,0,1,0,9.8,12.595,12.6,12.6,0,0,0,22.39,25.189Zm11.2,2.8H28.767a15.225,15.225,0,0,1-12.752,0H11.2A11.194,11.194,0,0,0,0,39.183v1.4a4.2,4.2,0,0,0,4.2,4.2H40.583a4.2,4.2,0,0,0,4.2-4.2v-1.4A11.194,11.194,0,0,0,33.586,27.988Z" transform="translate(13.683)" fill="#f23801"/>
</svg>
